<mxfile host="65bd71144e">
    <diagram id="Ao1l1A38CrJwPypZK3r1" name="Page-1">
        <mxGraphModel dx="1171" dy="783" grid="0" gridSize="10" guides="1" tooltips="1" connect="1" arrows="1" fold="1" page="0" pageScale="1" pageWidth="850" pageHeight="1100" math="0" shadow="0">
            <root>
                <mxCell id="0"/>
                <mxCell id="1" parent="0"/>
                <mxCell id="2" value="Customer" style="swimlane;" vertex="1" parent="1">
                    <mxGeometry x="69" y="51" width="200" height="800" as="geometry">
                        <mxRectangle x="270" y="160" width="130" height="23" as="alternateBounds"/>
                    </mxGeometry>
                </mxCell>
                <mxCell id="24" style="edgeStyle=orthogonalEdgeStyle;html=1;" edge="1" parent="2" source="6" target="13">
                    <mxGeometry relative="1" as="geometry">
                        <mxPoint x="109" y="80" as="sourcePoint"/>
                    </mxGeometry>
                </mxCell>
                <mxCell id="6" value="" style="ellipse;fillColor=#000000;strokeColor=none;" vertex="1" parent="2">
                    <mxGeometry x="85" y="52" width="30" height="30" as="geometry"/>
                </mxCell>
                <mxCell id="13" value="Select payment method" style="ellipse;whiteSpace=wrap;html=1;" vertex="1" parent="2">
                    <mxGeometry x="30" y="119" width="140" height="70" as="geometry"/>
                </mxCell>
                <mxCell id="27" style="edgeStyle=orthogonalEdgeStyle;html=1;" edge="1" parent="2" source="15" target="16">
                    <mxGeometry relative="1" as="geometry"/>
                </mxCell>
                <mxCell id="15" value="Select packaging option" style="ellipse;whiteSpace=wrap;html=1;" vertex="1" parent="2">
                    <mxGeometry x="33" y="263" width="140" height="70" as="geometry"/>
                </mxCell>
                <mxCell id="16" value="Selected special bags?" style="rhombus;whiteSpace=wrap;html=1;" vertex="1" parent="2">
                    <mxGeometry x="42" y="401" width="122" height="118" as="geometry"/>
                </mxCell>
                <mxCell id="3" value="System" style="swimlane;startSize=23;" vertex="1" parent="1">
                    <mxGeometry x="269" y="51" width="200" height="800" as="geometry">
                        <mxRectangle x="270" y="160" width="130" height="23" as="alternateBounds"/>
                    </mxGeometry>
                </mxCell>
                <mxCell id="14" value="Validate customer's billing info" style="ellipse;whiteSpace=wrap;html=1;" vertex="1" parent="3">
                    <mxGeometry x="30" y="119" width="130" height="70" as="geometry"/>
                </mxCell>
                <mxCell id="21" value="Package order" style="ellipse;whiteSpace=wrap;html=1;fillColor=#660033;" vertex="1" parent="3">
                    <mxGeometry x="38" y="590" width="130" height="70" as="geometry"/>
                </mxCell>
                <mxCell id="4" value="Payment sybsystem" style="swimlane;" vertex="1" parent="1">
                    <mxGeometry x="669" y="51" width="200" height="800" as="geometry">
                        <mxRectangle x="270" y="160" width="130" height="23" as="alternateBounds"/>
                    </mxGeometry>
                </mxCell>
                <mxCell id="7" value="" style="ellipse;html=1;shape=endState;fillColor=#000000;strokeColor=#000000;" vertex="1" parent="4">
                    <mxGeometry x="88" y="740" width="30" height="30" as="geometry"/>
                </mxCell>
                <mxCell id="33" style="edgeStyle=orthogonalEdgeStyle;html=1;" edge="1" parent="4" source="23" target="7">
                    <mxGeometry relative="1" as="geometry"/>
                </mxCell>
                <mxCell id="23" value="Handle payment" style="ellipse;whiteSpace=wrap;html=1;" vertex="1" parent="4">
                    <mxGeometry x="38" y="590" width="130" height="70" as="geometry"/>
                </mxCell>
                <mxCell id="18" value="Points subsystem" style="swimlane;startSize=23;" vertex="1" parent="1">
                    <mxGeometry x="469" y="51" width="200" height="800" as="geometry">
                        <mxRectangle x="270" y="160" width="130" height="23" as="alternateBounds"/>
                    </mxGeometry>
                </mxCell>
                <mxCell id="20" value="Customer gain points" style="ellipse;whiteSpace=wrap;html=1;fillColor=#660033;" vertex="1" parent="18">
                    <mxGeometry x="45" y="425" width="130" height="70" as="geometry"/>
                </mxCell>
                <mxCell id="25" style="edgeStyle=orthogonalEdgeStyle;html=1;" edge="1" parent="1" source="13" target="14">
                    <mxGeometry relative="1" as="geometry"/>
                </mxCell>
                <mxCell id="26" style="edgeStyle=orthogonalEdgeStyle;html=1;" edge="1" parent="1" source="14" target="15">
                    <mxGeometry relative="1" as="geometry">
                        <Array as="points">
                            <mxPoint x="364" y="349"/>
                        </Array>
                    </mxGeometry>
                </mxCell>
                <mxCell id="28" style="edgeStyle=orthogonalEdgeStyle;html=1;" edge="1" parent="1" source="16" target="20">
                    <mxGeometry relative="1" as="geometry"/>
                </mxCell>
                <mxCell id="34" value="Yes" style="edgeLabel;html=1;align=center;verticalAlign=middle;resizable=0;points=[];" vertex="1" connectable="0" parent="28">
                    <mxGeometry x="-0.0913" y="2" relative="1" as="geometry">
                        <mxPoint x="-110" y="-1" as="offset"/>
                    </mxGeometry>
                </mxCell>
                <mxCell id="29" style="edgeStyle=orthogonalEdgeStyle;html=1;" edge="1" parent="1" source="16" target="21">
                    <mxGeometry relative="1" as="geometry">
                        <Array as="points">
                            <mxPoint x="172" y="676"/>
                        </Array>
                    </mxGeometry>
                </mxCell>
                <mxCell id="35" value="No" style="edgeLabel;html=1;align=center;verticalAlign=middle;resizable=0;points=[];" vertex="1" connectable="0" parent="29">
                    <mxGeometry x="-0.7335" y="-1" relative="1" as="geometry">
                        <mxPoint x="1" y="-19" as="offset"/>
                    </mxGeometry>
                </mxCell>
                <mxCell id="30" style="edgeStyle=orthogonalEdgeStyle;html=1;" edge="1" parent="1" source="20" target="21">
                    <mxGeometry relative="1" as="geometry">
                        <Array as="points">
                            <mxPoint x="579" y="588"/>
                            <mxPoint x="372" y="588"/>
                        </Array>
                    </mxGeometry>
                </mxCell>
                <mxCell id="31" style="edgeStyle=orthogonalEdgeStyle;html=1;" edge="1" parent="1" source="21" target="23">
                    <mxGeometry relative="1" as="geometry"/>
                </mxCell>
            </root>
        </mxGraphModel>
    </diagram>
</mxfile>